<?xml version="1.0" standalone="no"?>
<!DOCTYPE svg PUBLIC "-//W3C//DTD SVG 20010904//EN"
 "http://www.w3.org/TR/2001/REC-SVG-20010904/DTD/svg10.dtd">
<svg version="1.0" xmlns="http://www.w3.org/2000/svg"
 width="1280.000000pt" height="1280.000000pt" viewBox="0 0 1280.000000 1280.000000"
 preserveAspectRatio="xMidYMid meet">
<g transform="translate(0.000000,1280.000000) scale(0.100000,-0.100000)"
fill="#000000" stroke="none">
<path d="M3277 11787 l-1438 -832 -829 -1438 -830 -1438 0 -1679 0 -1679 831
-1440 831 -1439 1439 -831 1440 -831 1679 0 1679 0 1440 831 1439 831 831
1439 831 1440 0 1679 0 1679 -831 1440 -831 1439 -1439 831 -1440 831 -1682
-1 -1682 0 -1438 -832z m2998 618 c-30 -12 -2739 -734 -2742 -731 -2 1 281
168 629 369 l633 366 745 0 c410 0 741 -2 735 -4z m2370 -367 c354 -205 643
-373 642 -374 -2 -2 -2539 677 -2732 730 -44 13 40 14 698 15 l748 1 644 -372z
m-1561 -14 l668 -179 -675 -3 c-372 -1 -982 -1 -1357 0 l-682 3 673 182 c371
100 681 180 689 179 8 -2 316 -83 684 -182z m-2279 -253 c-16 -10 -527 -306
-1135 -656 -608 -350 -1116 -644 -1130 -652 -14 -8 196 206 466 477 l491 492
659 178 c362 98 664 178 669 179 6 0 -3 -8 -20 -18z m3844 -166 l644 -173 491
-492 c270 -271 480 -485 466 -477 -14 8 -522 302 -1130 652 -608 350 -1118
646 -1135 657 -27 18 -28 19 -5 12 14 -4 315 -85 669 -179z m-2334 19 c-25
-10 -2439 -654 -2441 -651 -2 2 252 150 564 330 l567 327 660 -1 c363 0 656
-2 650 -5z m2037 -321 c312 -180 566 -328 565 -329 -2 -2 -2338 623 -2412 645
-18 6 223 10 625 10 l655 1 567 -327z m1839 -157 l605 -350 350 -605 c192
-333 361 -627 377 -653 15 -26 26 -48 25 -48 -2 0 -467 464 -1033 1031 -774
775 -1017 1024 -980 1002 28 -15 323 -185 656 -377z m-6901 391 c0 -1 -457
-459 -1015 -1017 l-1016 -1015 115 200 c64 110 231 400 373 645 l257 446 640
371 c684 396 646 374 646 370z m3517 -228 c215 -57 390 -105 389 -106 -2 -2
-48 4 -104 12 -387 58 -970 60 -1365 5 -44 -6 -81 -10 -82 -8 -5 5 748 207
760 204 6 -2 186 -50 402 -107z m-2158 -363 c-2 -2 -71 -32 -154 -67 -368
-155 -760 -385 -1075 -629 -100 -78 -92 -69 182 207 l288 288 372 101 c368
101 395 107 387 100z m3893 -101 l366 -98 314 -315 c214 -215 288 -294 233
-250 -355 286 -756 527 -1160 698 -82 34 -152 65 -155 68 -6 6 -35 13 402
-103z m-4822 42 c0 -1 -407 -409 -905 -907 l-906 -905 98 170 c54 94 203 353
332 576 l234 405 571 331 c609 353 576 334 576 330z m5962 -351 l535 -309 309
-535 c332 -575 336 -582 332 -582 -2 0 -399 396 -883 881 -484 485 -868 875
-854 868 14 -8 267 -153 561 -323z m-7450 -459 c-694 -1202 -1217 -2106 -1218
-2104 -1 1 78 301 176 666 l178 664 488 488 c269 269 490 489 491 489 1 0 -51
-91 -115 -203z m9368 -1438 c98 -365 177 -665 176 -666 -2 -2 -799 1376 -1219
2107 l-118 205 491 -491 492 -491 178 -664z m-742 -148 c62 -230 112 -422 112
-427 -1 -5 -18 36 -39 91 -176 460 -437 911 -759 1310 -44 54 38 -22 255 -238
l319 -318 112 -418z m-8309 887 c-248 -315 -492 -739 -661 -1147 -22 -53 -38
-87 -35 -76 2 11 48 184 101 385 l98 365 286 288 c158 158 288 287 289 287 1
0 -34 -46 -78 -102z m9485 -725 l376 -652 -2 -759 -3 -759 -375 1399 c-392
1463 -385 1436 -377 1428 2 -3 174 -299 381 -657z m-11272 -761 l-367 -1371
-3 740 -2 740 367 634 c201 350 368 634 369 632 2 -2 -162 -621 -364 -1375z
m743 -183 c-179 -668 -327 -1218 -329 -1224 -3 -5 -5 287 -5 650 l-1 660 327
567 c180 312 328 566 330 564 2 -1 -143 -549 -322 -1217z m9796 639 l319 -553
-1 -640 c0 -352 -3 -635 -5 -630 -8 21 -640 2385 -636 2381 2 -3 148 -253 323
-558z m-5108 -538 c71 -4 131 -11 134 -14 10 -9 -26 -44 -53 -50 l-24 -6 0
-433 c1 -468 -3 -438 48 -370 l17 22 195 -78 c230 -92 488 -206 726 -321 l172
-82 -75 -132 c-42 -72 -80 -136 -87 -142 -8 -9 -46 7 -146 62 -159 86 -459
229 -685 325 l-160 68 -3 -724 -2 -725 -155 0 -155 0 0 1305 0 1305 63 0 c34
-1 120 -5 190 -10z m-5235 -2080 l-3 -681 -182 678 -182 678 182 678 182 678
3 -675 c1 -371 1 -981 0 -1356z m11061 1345 l180 -670 -180 -670 c-99 -368
-181 -674 -183 -680 -3 -5 -4 602 -4 1350 0 748 1 1356 4 1350 2 -5 84 -311
183 -680z m-7441 311 c61 -44 112 -83 112 -87 0 -5 -11 -14 -24 -21 -13 -7
-64 -67 -113 -133 -232 -309 -593 -669 -960 -958 l-112 -88 72 -61 c121 -100
317 -281 410 -377 l89 -90 -127 -111 -126 -112 -162 164 c-333 336 -760 678
-1122 898 -39 23 -72 44 -74 47 -7 5 191 203 203 203 24 0 338 -199 524 -332
l82 -60 107 84 c247 193 489 420 654 613 97 114 159 194 159 206 0 5 -463 9
-1030 9 l-1030 0 0 140 0 140 1153 0 c682 0 1158 4 1167 9 17 12 9 16 148 -83z
m5872 -966 l0 -1000 -145 0 -145 0 0 90 0 90 -760 0 -760 0 0 -95 0 -95 -150
0 -150 0 0 1005 0 1005 1055 0 1055 0 0 -1000z m854 408 l114 -428 -114 -427
c-63 -236 -117 -432 -119 -438 -6 -12 0 41 20 175 61 402 60 987 0 1395 -24
158 -25 171 -20 160 2 -5 56 -202 119 -437z m-9724 246 c-56 -404 -54 -973 5
-1368 8 -55 14 -100 12 -102 -1 -1 -50 177 -109 397 l-106 399 101 379 c56
209 103 378 105 376 2 -1 -2 -38 -8 -81z m10448 -2938 c-211 -365 -384 -663
-385 -662 -1 1 170 643 380 1427 l382 1426 3 -764 2 -763 -382 -664z m-10519
939 c175 -654 318 -1191 317 -1192 -1 -1 -149 253 -329 565 l-327 567 1 655
c0 401 4 643 10 625 5 -16 152 -565 328 -1220z m-730 -220 c198 -737 358
-1341 357 -1342 -1 -1 -169 288 -374 642 l-372 644 1 748 c1 657 3 742 15 698
7 -27 175 -653 373 -1390z m10841 792 l0 -632 -317 -551 c-175 -304 -319 -551
-320 -550 -3 3 630 2366 634 2366 2 0 3 -285 3 -633z m-9935 -1967 c350 -608
644 -1116 652 -1130 8 -14 -206 196 -477 466 l-492 491 -173 644 c-94 354
-175 655 -179 669 -7 23 -6 22 12 -5 11 -16 307 -527 657 -1135z m9915 491
l-178 -664 -492 -491 -491 -491 118 205 c420 731 1217 2109 1219 2107 1 -1
-78 -301 -176 -666z m-737 157 l-116 -437 -350 -348 c-252 -251 -327 -322
-270 -253 345 416 634 908 808 1378 21 56 40 101 41 99 2 -2 -49 -200 -113
-439z m-8978 262 c169 -426 428 -867 733 -1245 44 -55 -35 19 -250 233 l-315
313 -103 387 c-57 213 -105 394 -108 402 -3 8 -3 13 0 10 3 -3 22 -48 43 -100z
m930 -1771 c484 -485 868 -875 854 -868 -14 8 -267 153 -561 323 l-535 309
-309 535 c-332 575 -336 582 -332 582 2 0 399 -396 883 -881z m8011 819 c-14
-23 -156 -270 -317 -548 l-292 -507 -507 -292 c-278 -161 -526 -304 -550 -318
-30 -17 254 274 820 841 476 476 866 866 868 866 2 0 -8 -19 -22 -42z m-5101
-311 c180 -320 231 -417 283 -536 18 -40 35 -72 37 -70 2 2 -1 65 -5 139 -5
74 -9 278 -10 453 l0 317 80 0 80 0 0 -570 0 -570 -88 0 -89 0 -182 325 c-168
300 -301 557 -301 584 0 6 -3 11 -7 11 -5 0 -7 -207 -5 -460 l3 -460 -75 0
-76 0 0 570 0 570 93 0 92 -1 170 -302z m1305 233 l0 -70 -215 0 -215 0 0
-170 0 -170 200 0 200 0 0 -70 0 -70 -200 0 -200 0 0 -190 0 -190 225 0 225 0
0 -70 0 -70 -310 0 -310 0 0 570 0 570 300 0 300 0 0 -70z m880 0 l0 -70 -155
0 -155 0 0 -500 0 -500 -85 0 -85 0 0 500 0 500 -155 0 -155 0 0 70 0 70 395
0 395 0 0 -70z m3618 -288 c-18 -32 -190 -330 -382 -663 l-350 -605 -605 -350
c-333 -192 -632 -364 -665 -383 -53 -29 84 111 984 1013 575 575 1046 1046
1048 1046 2 0 -12 -26 -30 -58z m-9243 -993 c776 -776 1018 -1024 979 -1002
-27 15 -322 185 -655 377 l-605 350 -350 605 c-192 333 -361 627 -377 653 -15
26 -26 48 -25 48 2 0 467 -464 1033 -1031z m6972 123 l-348 -348 -436 -117
c-240 -64 -438 -115 -440 -114 -2 2 43 21 99 42 472 175 1019 497 1388 818 41
36 77 66 80 66 3 1 -152 -156 -343 -347z m-4107 273 c51 -46 44 -151 -13 -185
-50 -31 -93 -26 -134 15 -33 33 -35 38 -31 87 5 43 11 57 38 81 29 25 39 29
77 24 24 -2 53 -13 63 -22z m-1655 -172 c342 -256 823 -518 1203 -653 34 -13
61 -24 60 -25 -2 -2 -197 49 -435 113 l-432 116 -318 319 c-216 217 -292 299
-238 255 44 -35 116 -91 160 -125z m382 -928 c524 -302 951 -550 950 -551 -1
-1 -301 78 -666 176 l-664 178 -491 492 -491 491 205 -118 c113 -65 634 -365
1157 -668z m5907 294 l-491 -491 -664 -178 c-365 -98 -665 -177 -666 -176 -2
2 2299 1334 2307 1335 3 1 -216 -220 -486 -490z m-3509 -683 c5 -2 -278 -5
-630 -5 l-640 -1 -553 319 c-305 175 -555 321 -558 323 -4 4 2360 -628 2381
-636z m2595 619 c-14 -7 -263 -151 -555 -319 l-530 -306 -635 1 c-349 0 -630
3 -624 5 17 7 2348 633 2359 633 6 0 -1 -6 -15 -14z m-3173 -210 c400 -60 996
-60 1391 -1 136 21 189 27 177 21 -5 -2 -202 -56 -437 -119 l-428 -114 -427
114 c-236 63 -432 117 -438 119 -11 5 3 4 162 -20z m3618 -447 c-11 -6 -311
-179 -667 -385 l-647 -373 -764 2 -764 3 1421 382 c782 209 1426 381 1431 382
6 0 1 -5 -10 -11z m-4397 -378 l1399 -375 -759 -3 -759 -2 -652 376 c-358 207
-654 379 -657 381 -8 8 -35 15 1428 -377z m2827 194 c-5 -2 -311 -84 -680
-183 l-670 -180 -670 180 c-368 99 -674 181 -680 183 -5 3 602 4 1350 4 748 0
1356 -1 1350 -4z"/>
<path d="M8630 6515 l0 -635 760 0 760 0 0 635 0 635 -760 0 -760 0 0 -635z"/>
</g>
</svg>
