<svg xmlns="http://www.w3.org/2000/svg" xmlns:xlink="http://www.w3.org/1999/xlink" xml:space="preserve"
  width="100%" height="100%" viewBox="0 0 1280 1280">
  <g stroke="none">
    <path d="m327.7 101.3-143.8 83.2L101 328.3 18 472.1v335.8l83.1 144 83.1 143.9 143.9 83.1 144 83.1h335.8l144-83.1 
    143.9-83.1 83.1-143.9 83.1-144V472.1l-83.1-144-83.1-143.9-143.9-83.1-144-83.1-168.2.1H471.5l-143.8 83.2zm299.8-61.8c-3 
    1.2-273.9 73.4-274.2 73.1-.2-.1 28.1-16.8 62.9-36.9l63.3-36.6H554c41 0 74.1.2 73.5.4zm237 36.7c35.4 20.5 64.3 37.3 64.2 
    37.4-.2.2-253.9-67.7-273.2-73-4.4-1.3 4-1.4 69.8-1.5l74.8-.1 64.4 37.2zm-156.1 1.4 66.8 17.9-67.5.3c-37.2.1-98.2.1-135.7 
    0l-68.2-.3 67.3-18.2c37.1-10 68.1-18 68.9-17.9.8.2 31.6 8.3 68.4 18.2zm-227.9 25.3c-1.6 1-52.7 30.6-113.5 65.6-60.8 
    35-111.6 64.4-113 65.2-1.4.8 19.6-20.6 46.6-47.7l49.1-49.2 65.9-17.8c36.2-9.8 66.4-17.8 66.9-17.9.6 0-.3.8-2 1.8zm384.4 
    16.6 64.4 17.3 49.1 49.2c27 27.1 48 48.5 46.6 47.7-1.4-.8-52.2-30.2-113-65.2s-111.8-64.6-113.5-65.7c-2.7-1.8-2.8-1.9-.5-1.2 
    1.4.4 31.5 8.5 66.9 17.9zm-233.4-1.9c-2.5 1-243.9 65.4-244.1 65.1-.2-.2 25.2-15 56.4-33l56.7-32.7 66 .1c36.3 0 65.6.2 
    65 .5zm203.7 32.1c31.2 18 56.6 32.8 56.5 32.9-.2.2-233.8-62.3-241.2-64.5-1.8-.6 22.3-1 62.5-1l65.5-.1 56.7 32.7zm183.9 
    15.7 60.5 35 35 60.5c19.2 33.3 36.1 62.7 37.7 65.3 1.5 2.6 2.6 4.8 2.5 4.8-.2 0-46.7-46.4-103.3-103.1-77.4-77.5-101.7-102.4-98-100.2 
    2.8 1.5 32.3 18.5 65.6 37.7zM329 126.3c0 .1-45.7 45.9-101.5 101.7L125.9 329.5l11.5-20c6.4-11 23.1-40 37.3-64.5l25.7-44.6 64-37.1c68.4-39.6 
    64.6-37.4 64.6-37zm351.7 22.8c21.5 5.7 39 10.5 38.9 10.6-.2.2-4.8-.4-10.4-1.2-38.7-5.8-97-6-136.5-.5-4.4.6-8.1 1-8.2.8-.5-.5 
    74.8-20.7 76-20.4.6.2 18.6 5 40.2 10.7zm-215.8 36.3c-.2.2-7.1 3.2-15.4 6.7-36.8 15.5-76 38.5-107.5 62.9-10 7.8-9.2 6.9 
    18.2-20.7l28.8-28.8 37.2-10.1c36.8-10.1 39.5-10.7 38.7-10zm389.3 10.1 36.6 9.8 31.4 31.5c21.4 21.5 28.8 29.4 23.3 
    25-35.5-28.6-75.6-52.7-116-69.8-8.2-3.4-15.2-6.5-15.5-6.8-.6-.6-3.5-1.3 40.2 10.3zM372 191.3c0 .1-40.7 40.9-90.5 
    90.7l-90.6 90.5 9.8-17c5.4-9.4 20.3-35.3 33.2-57.6l23.4-40.5 57.1-33.1c60.9-35.3 57.6-33.4 57.6-33zm596.2 35.1 53.5 30.9 
    30.9 53.5c33.2 57.5 33.6 58.2 33.2 58.2-.2 0-39.9-39.6-88.3-88.1-48.4-48.5-86.8-87.5-85.4-86.8 1.4.8 26.7 15.3 56.1 
    32.3zm-745 45.9c-69.4 120.2-121.7 210.6-121.8 210.4-.1-.1 7.8-30.1 17.6-66.6l17.8-66.4 48.8-48.8c26.9-26.9 49-48.9 49.1-48.9.1 
    0-5.1 9.1-11.5 20.3zM1160 416.1c9.8 36.5 17.7 66.5 17.6 66.6-.2.2-79.9-137.6-121.9-210.7l-11.8-20.5 49.1 49.1 49.2 49.1 
    17.8 66.4zm-74.2 14.8c6.2 23 11.2 42.2 11.2 42.7-.1.5-1.8-3.6-3.9-9.1-17.6-46-43.7-91.1-75.9-131-4.4-5.4 3.8 2.2 25.5 
    23.8l31.9 31.8 11.2 41.8zm-830.9-88.7c-24.8 31.5-49.2 73.9-66.1 114.7-2.2 5.3-3.8 8.7-3.5 7.6.2-1.1 4.8-18.4 
    10.1-38.5l9.8-36.5 28.6-28.8c15.8-15.8 28.8-28.7 28.9-28.7.1 0-3.4 4.6-7.8 10.2zm948.5 72.5 37.6 65.2-.2 75.9-.3 
    75.9-37.5-139.9c-39.2-146.3-38.5-143.6-37.7-142.8.2.3 17.4 29.9 38.1 65.7zM76.2 490.8 39.5 627.9l-.3-74-.2-74 36.7-63.4c20.1-35 
    36.8-63.4 36.9-63.2.2.2-16.2 62.1-36.4 137.5zm74.3 18.3c-17.9 66.8-32.7 121.8-32.9 122.4-.3.5-.5-28.7-.5-65l-.1-66 
    32.7-56.7c18-31.2 32.8-56.6 33-56.4.2.1-14.3 54.9-32.2 121.7zm979.6-63.9 31.9 55.3-.1 64c0 35.2-.3 63.5-.5 
    63-.8-2.1-64-238.5-63.6-238.1.2.3 14.8 25.3 32.3 55.8zM619.3 499c7.1.4 13.1 1.1 13.4 1.4 1 .9-2.6 4.4-5.3 5l-2.4.6v43.3c.1 
    46.8-.3 43.8 4.8 37l1.7-2.2 19.5 7.8c23 9.2 48.8 20.6 72.6 32.1l17.2 8.2-7.5 13.2c-4.2 7.2-8 13.6-8.7 
    14.2-.8.9-4.6-.7-14.6-6.2-15.9-8.6-45.9-22.9-68.5-32.5l-16-6.8-.3 72.4-.2 72.5h-31V498h6.3c3.4.1 12 .5 19 1zM95.8 
    707l-.3 68.1-18.2-67.8-18.2-67.8 18.2-67.8 18.2-67.8.3 67.5c.1 37.1.1 98.1 0 135.6zm1106.1-134.5 18 67-18 67c-9.9 
    36.8-18.1 67.4-18.3 68-.3.5-.4-60.2-.4-135s.1-135.6.4-135c.2.5 8.4 31.1 18.3 68zm-744.1-31.1c6.1 4.4 11.2 8.3 11.2 
    8.7 0 .5-1.1 1.4-2.4 2.1-1.3.7-6.4 6.7-11.3 13.3-23.2 30.9-59.3 66.9-96 95.8l-11.2 8.8 7.2 6.1c12.1 10 31.7 28.1 41 
    37.7l8.9 9-12.7 11.1-12.6 11.2-16.2-16.4c-33.3-33.6-76-67.8-112.2-89.8-3.9-2.3-7.2-4.4-7.4-4.7-.7-.5 19.1-20.3 
    20.3-20.3 2.4 0 33.8 19.9 52.4 33.2l8.2 6 10.7-8.4c24.7-19.3 48.9-42 65.4-61.3 9.7-11.4 15.9-19.4 15.9-20.6 
    0-.5-46.3-.9-103-.9H211v-28h115.3c68.2 0 115.8-.4 116.7-.9 1.7-1.2.9-1.6 14.8 8.3zM1045 
    638v100h-29v-18H864v19h-30V538h211v100zm85.4-40.8 11.4 42.8-11.4 42.7c-6.3 23.6-11.7 43.2-11.9 43.8-.6 1.2 0-4.1 2-17.5 
    6.1-40.2 6-98.7 0-139.5-2.4-15.8-2.5-17.1-2-16 .2.5 5.6 20.2 11.9 43.7zM158 572.6c-5.6 40.4-5.4 97.3.5 136.8.8 5.5 1.4 
    10 1.2 10.2-.1.1-5-17.7-10.9-39.7L138.2 640l10.1-37.9c5.6-20.9 10.3-37.8 10.5-37.6.2.1-.2 3.8-.8 8.1zm1044.8 293.8c-21.1 
    36.5-38.4 66.3-38.5 66.2-.1-.1 17-64.3 38-142.7l38.2-142.6.3 76.4.2 76.3-38.2 66.4zM150.9 772.5c17.5 65.4 31.8 119.1 31.7 
    119.2-.1.1-14.9-25.3-32.9-56.5L117 778.5l.1-65.5c0-40.1.4-64.3 1-62.5.5 1.6 15.2 56.5 32.8 122zm-73 22c19.8 73.7 35.8 134.1 
    35.7 134.2-.1.1-16.9-28.8-37.4-64.2L39 800.1l.1-74.8c.1-65.7.3-74.2 1.5-69.8.7 2.7 17.5 65.3 37.3 139zM1162 
    715.3v63.2l-31.7 55.1c-17.5 30.4-31.9 55.1-32 55-.3-.3 63-236.6 63.4-236.6.2 0 .3 28.5.3 63.3zM168.5 912c35 60.8 64.4 111.6 
    65.2 113 .8 1.4-20.6-19.6-47.7-46.6l-49.2-49.1-17.3-64.4c-9.4-35.4-17.5-65.5-17.9-66.9-.7-2.3-.6-2.2 1.2.5 1.1 1.6 30.7 52.7 
    65.7 113.5zm991.5-49.1-17.8 66.4-49.2 49.1-49.1 49.1 11.8-20.5c42-73.1 121.7-210.9 121.9-210.7.1.1-7.8 30.1-17.6 
    66.6zm-73.7-15.7-11.6 43.7-35 34.8c-25.2 25.1-32.7 32.2-27 25.3 34.5-41.6 63.4-90.8 80.8-137.8 2.1-5.6 4-10.1 4.1-9.9.2.2-4.9 
    20-11.3 43.9zM188.5 821c16.9 42.6 42.8 86.7 73.3 124.5 4.4 
    5.5-3.5-1.9-25-23.3l-31.5-31.3-10.3-38.7c-5.7-21.3-10.5-39.4-10.8-40.2-.3-.8-.3-1.3 0-1 .3.3 2.2 4.8 4.3 10zm93 
    177.1c48.4 48.5 86.8 87.5 85.4 86.8-1.4-.8-26.7-15.3-56.1-32.3l-53.5-30.9-30.9-53.5c-33.2-57.5-33.6-58.2-33.2-58.2.2 0 39.9 
    39.6 88.3 88.1zm801.1-81.9c-1.4 2.3-15.6 27-31.7 54.8l-29.2 50.7-50.7 29.2c-27.8 16.1-52.6 30.4-55 31.8-3 1.7 25.4-27.4 
    82-84.1 47.6-47.6 86.6-86.6 86.8-86.6.2 0-.8 1.9-2.2 4.2zm70.2 36.6c-1.8 3.2-19 33-38.2 66.3l-35 60.5-60.5 35c-33.3 19.2-63.2 
    36.4-66.5 38.3-5.3 2.9 8.4-11.1 98.4-101.3 57.5-57.5 104.6-104.6 104.8-104.6.2 0-1.2 2.6-3 5.8zm-924.3 99.3c77.6 77.6 101.8 
    102.4 97.9 100.2-2.7-1.5-32.2-18.5-65.5-37.7l-60.5-35-35-60.5c-19.2-33.3-36.1-62.7-37.7-65.3-1.5-2.6-2.6-4.8-2.5-4.8.2 0 
    46.7 46.4 103.3 103.1zm697.2-12.3-34.8 34.8-43.6 11.7c-24 6.4-43.8 11.5-44 11.4-.2-.2 4.3-2.1 9.9-4.2 47.2-17.5 101.9-49.7 
    138.8-81.8 4.1-3.6 7.7-6.6 8-6.6.3-.1-15.2 15.6-34.3 34.7zm-576.2-10.1c34.2 25.6 82.3 51.8 120.3 65.3 3.4 1.3 6.1 2.4 6 
    2.5-.2.2-19.7-4.9-43.5-11.3l-43.2-11.6-31.8-31.9c-21.6-21.7-29.2-29.9-23.8-25.5 4.4 3.5 11.6 9.1 16 12.5zm38.2 92.8c52.4 
    30.2 95.1 55 95 55.1-.1.1-30.1-7.8-66.6-17.6l-66.4-17.8-49.1-49.2-49.1-49.1 20.5 11.8c11.3 6.5 63.4 36.5 115.7 
    66.8zm590.7-29.4-49.1 49.1-66.4 17.8c-36.5 9.8-66.5 17.7-66.6 17.6-.2-.2 229.9-133.4 230.7-133.5.3-.1-21.6 22-48.6 
    49zm-350.9 68.3c.5.2-27.8.5-63 .5l-64 .1-55.3-31.9c-30.5-17.5-55.5-32.1-55.8-32.3-.4-.4 236 62.8 238.1 
    63.6zm259.5-61.9c-1.4.7-26.3 15.1-55.5 31.9l-53 30.6-63.5-.1c-34.9 0-63-.3-62.4-.5 1.7-.7 234.8-63.3 235.9-63.3.6 0-.1.6-1.5 
    1.4zm-317.3 21c40 6 99.6 6 139.1.1 13.6-2.1 18.9-2.7 17.7-2.1-.5.2-20.2 5.6-43.7 
    11.9l-42.8 11.4-42.7-11.4c-23.6-6.3-43.2-11.7-43.8-11.9-1.1-.5.3-.4 16.2 2zm361.8 44.7c-1.1.6-31.1 17.9-66.7 38.5l-64.7 
    37.3-76.4-.2-76.4-.3 142.1-38.2c78.2-20.9 142.6-38.1 143.1-38.2.6 0 .1.5-1 1.1zM491.8 1203l139.9 
    37.5-75.9.3-75.9.2-65.2-37.6c-35.8-20.7-65.4-37.9-65.7-38.1-.8-.8-3.5-1.5 142.8 37.7zm282.7-19.4c-.5.2-31.1 8.4-68 
    18.3l-67 18-67-18c-36.8-9.9-67.4-18.1-68-18.3-.5-.3 60.2-.4 135-.4s135.6.1 135 .4z" />
    <path d="M863 628.5V692h152V565H863v63.5z" />
  </g>
</svg>